<svg width="26" height="22" viewBox="0 0 26 22" fill="none" xmlns="http://www.w3.org/2000/svg">
<path fill-rule="evenodd" clip-rule="evenodd" d="M0 0V22H26V0H0Z" fill="#2E42A5"/>
<mask id="mask0_328_36" style="mask-type:luminance" maskUnits="userSpaceOnUse" x="0" y="0" width="26" height="22">
<path fill-rule="evenodd" clip-rule="evenodd" d="M0 0V22H26V0H0Z" fill="white"/>
</mask>
<g mask="url(#mask0_328_36)">
<path d="M-2.89505 20.4283L2.82632 23.1582L26.1298 2.96802L29.1477 -1.08867L23.0295 -2.00108L13.5246 6.69944L5.87409 12.5616L-2.89505 20.4283Z" fill="white"/>
<path d="M-2.11179 22.3409L0.802989 23.9251L28.064 -1.46558H23.9713L-2.11179 22.3409Z" fill="#F50100"/>
<path d="M28.8951 20.4283L23.1737 23.1582L-0.129828 2.96802L-3.14772 -1.08867L2.97046 -2.00108L12.4754 6.69944L20.1259 12.5616L28.8951 20.4283Z" fill="white"/>
<path d="M28.6998 21.801L25.7851 23.3852L14.177 12.5141L10.7355 11.2995L-3.43811 -1.07477H0.654573L14.8202 11.0058L18.5829 12.4622L28.6998 21.801Z" fill="#F50100"/>
<mask id="path-7-inside-1_328_36" fill="white">
<path fill-rule="evenodd" clip-rule="evenodd" d="M16.0694 -1.83333H9.93055V7.33333H-1.60263V14.6667H9.93055V23.8333H16.0694V14.6667H27.6474V7.33333H16.0694V-1.83333Z"/>
</mask>
<path fill-rule="evenodd" clip-rule="evenodd" d="M16.0694 -1.83333H9.93055V7.33333H-1.60263V14.6667H9.93055V23.8333H16.0694V14.6667H27.6474V7.33333H16.0694V-1.83333Z" fill="#F50100"/>
<path d="M9.93055 -1.83333V-2.83333H8.93055V-1.83333H9.93055ZM16.0694 -1.83333H17.0694V-2.83333H16.0694V-1.83333ZM9.93055 7.33333V8.33333H10.9305V7.33333H9.93055ZM-1.60263 7.33333V6.33333H-2.60263V7.33333H-1.60263ZM-1.60263 14.6667H-2.60263V15.6667H-1.60263V14.6667ZM9.93055 14.6667H10.9305V13.6667H9.93055V14.6667ZM9.93055 23.8333H8.93055V24.8333H9.93055V23.8333ZM16.0694 23.8333V24.8333H17.0694V23.8333H16.0694ZM16.0694 14.6667V13.6667H15.0694V14.6667H16.0694ZM27.6474 14.6667V15.6667H28.6474V14.6667H27.6474ZM27.6474 7.33333H28.6474V6.33333H27.6474V7.33333ZM16.0694 7.33333H15.0694V8.33333H16.0694V7.33333ZM9.93055 -0.833334H16.0694V-2.83333H9.93055V-0.833334ZM10.9305 7.33333V-1.83333H8.93055V7.33333H10.9305ZM-1.60263 8.33333H9.93055V6.33333H-1.60263V8.33333ZM-0.602631 14.6667V7.33333H-2.60263V14.6667H-0.602631ZM9.93055 13.6667H-1.60263V15.6667H9.93055V13.6667ZM10.9305 23.8333V14.6667H8.93055V23.8333H10.9305ZM16.0694 22.8333H9.93055V24.8333H16.0694V22.8333ZM15.0694 14.6667V23.8333H17.0694V14.6667H15.0694ZM27.6474 13.6667H16.0694V15.6667H27.6474V13.6667ZM26.6474 7.33333V14.6667H28.6474V7.33333H26.6474ZM16.0694 8.33333H27.6474V6.33333H16.0694V8.33333ZM15.0694 -1.83333V7.33333H17.0694V-1.83333H15.0694Z" fill="white" mask="url(#path-7-inside-1_328_36)"/>
</g>
</svg>
