<svg width="177" height="177" viewBox="0 0 177 177" fill="none" xmlns="http://www.w3.org/2000/svg">
<path d="M177 88.5C177 137.377 137.377 177 88.5 177C39.6228 177 0 137.377 0 88.5C0 39.6228 39.6228 0 88.5 0C137.377 0 177 39.6228 177 88.5ZM15.9289 88.5C15.9289 128.58 48.4201 161.071 88.5 161.071C128.58 161.071 161.071 128.58 161.071 88.5C161.071 48.4201 128.58 15.9289 88.5 15.9289C48.4201 15.9289 15.9289 48.4201 15.9289 88.5Z" fill="#131415"/>
<path d="M165.646 65.3826C169.86 64.12 172.286 59.6629 170.649 55.5799C164.627 40.5507 154.574 27.41 141.53 17.6474C128.486 7.88474 113.044 1.94352 96.9268 0.402014C92.5481 -0.0167713 88.9556 3.56703 88.932 7.96561C88.9084 12.3642 92.4661 15.9039 96.8356 16.4091C109.536 17.8775 121.674 22.6828 131.985 30.4C142.296 38.1172 150.328 48.4085 155.317 60.1798C157.034 64.2297 161.433 66.6452 165.646 65.3826Z" fill="white"/>
</svg>
