<svg width="93" height="69" viewBox="0 0 93 69" fill="none" xmlns="http://www.w3.org/2000/svg">
<path d="M19.6543 55.5381C16.3125 55.5381 14.3301 54.0654 13.084 50.582L1.69922 20.0244C1.41602 19.2314 1.27441 18.4385 1.27441 17.6172C1.27441 15.21 3.08691 13.5674 5.77734 13.5674C8.07129 13.5674 9.43066 14.6152 10.1387 16.9375L19.7109 46.1924H19.9092L29.4531 16.8525C30.1611 14.5586 31.4355 13.5674 33.6729 13.5674C36.2783 13.5674 38.0625 15.1816 38.0625 17.5039C38.0625 18.2686 37.9209 19.0332 37.6377 19.7979L26.1963 50.6104C24.9502 54.0654 22.9678 55.5381 19.6543 55.5381ZM43.1885 55.3398C40.6396 55.3398 38.6289 53.3008 38.6289 50.7803C38.6289 48.2314 40.6396 46.2207 43.1885 46.2207C45.709 46.2207 47.748 48.2314 47.748 50.7803C47.748 53.3008 45.709 55.3398 43.1885 55.3398ZM58.7646 55.5381C56.1875 55.5381 54.6582 53.9805 54.6582 51.2617V17.8438C54.6582 15.125 56.2441 13.5674 58.9629 13.5674C60.7188 13.5674 61.9082 14.2754 63.2109 16.0596L80.8828 40.7549H81.1094V17.8721C81.1094 15.125 82.6387 13.5674 85.2158 13.5674C87.793 13.5674 89.2939 15.125 89.2939 17.8721V51.375C89.2939 54.0371 87.793 55.5381 85.1025 55.5381C83.2617 55.5381 82.1289 54.8867 80.8262 53.0742L63.0977 28.2373H62.8428V51.2617C62.8428 53.9805 61.3135 55.5381 58.7646 55.5381Z" fill="black"/>
</svg>
