<svg width="115" height="115" viewBox="0 0 115 115" fill="none" xmlns="http://www.w3.org/2000/svg">
<circle cx="57.5" cy="57.5" r="57.5" fill="black"/>
<path d="M30.6543 78.5381C27.3125 78.5381 25.3301 77.0654 24.084 73.582L12.6992 43.0244C12.416 42.2314 12.2744 41.4385 12.2744 40.6172C12.2744 38.21 14.0869 36.5674 16.7773 36.5674C19.0713 36.5674 20.4307 37.6152 21.1387 39.9375L30.7109 69.1924H30.9092L40.4531 39.8525C41.1611 37.5586 42.4355 36.5674 44.6729 36.5674C47.2783 36.5674 49.0625 38.1816 49.0625 40.5039C49.0625 41.2686 48.9209 42.0332 48.6377 42.7979L37.1963 73.6104C35.9502 77.0654 33.9678 78.5381 30.6543 78.5381ZM54.1885 78.3398C51.6396 78.3398 49.6289 76.3008 49.6289 73.7803C49.6289 71.2314 51.6396 69.2207 54.1885 69.2207C56.709 69.2207 58.748 71.2314 58.748 73.7803C58.748 76.3008 56.709 78.3398 54.1885 78.3398ZM69.7646 78.5381C67.1875 78.5381 65.6582 76.9805 65.6582 74.2617V40.8438C65.6582 38.125 67.2441 36.5674 69.9629 36.5674C71.7188 36.5674 72.9082 37.2754 74.2109 39.0596L91.8828 63.7549H92.1094V40.8721C92.1094 38.125 93.6387 36.5674 96.2158 36.5674C98.793 36.5674 100.294 38.125 100.294 40.8721V74.375C100.294 77.0371 98.793 78.5381 96.1025 78.5381C94.2617 78.5381 93.1289 77.8867 91.8262 76.0742L74.0977 51.2373H73.8428V74.2617C73.8428 76.9805 72.3135 78.5381 69.7646 78.5381Z" fill="white"/>
</svg>
