<svg width="38" height="38" viewBox="0 0 38 38" fill="none" xmlns="http://www.w3.org/2000/svg">
<path d="M18.9998 3.16667C16.9206 3.16667 14.8617 3.57621 12.9407 4.37191C11.0197 5.16761 9.27424 6.33389 7.80398 7.80415C4.83465 10.7735 3.1665 14.8007 3.1665 19C3.1665 25.9983 7.71067 31.9358 13.9965 34.0417C14.7882 34.1683 15.0415 33.6775 15.0415 33.25V30.5742C10.6557 31.5242 9.7215 28.4525 9.7215 28.4525C8.99317 26.6158 7.964 26.125 7.964 26.125C6.52317 25.1433 8.07484 25.175 8.07484 25.175C9.65817 25.2858 10.4973 26.8058 10.4973 26.8058C11.8748 29.2125 14.2023 28.5 15.1048 28.12C15.2473 27.0908 15.659 26.3942 16.1023 25.9983C12.5873 25.6025 8.89817 24.2408 8.89817 18.2083C8.89817 16.4508 9.49984 15.0417 10.529 13.9175C10.3707 13.5217 9.8165 11.875 10.6873 9.73751C10.6873 9.73751 12.0173 9.31001 15.0415 11.3525C16.2923 11.0042 17.654 10.83 18.9998 10.83C20.3457 10.83 21.7073 11.0042 22.9582 11.3525C25.9823 9.31001 27.3123 9.73751 27.3123 9.73751C28.1832 11.875 27.629 13.5217 27.4707 13.9175C28.4998 15.0417 29.1015 16.4508 29.1015 18.2083C29.1015 24.2567 25.3965 25.5867 21.8657 25.9825C22.4357 26.4733 22.9582 27.4392 22.9582 28.9117V33.25C22.9582 33.6775 23.2115 34.1842 24.019 34.0417C30.3048 31.92 34.8332 25.9983 34.8332 19C34.8332 16.9207 34.4236 14.8618 33.6279 12.9409C32.8322 11.0199 31.666 9.27441 30.1957 7.80415C28.7254 6.33389 26.98 5.16761 25.059 4.37191C23.138 3.57621 21.0791 3.16667 18.9998 3.16667Z" fill="white"/>
</svg>
