<svg width="73" height="62" viewBox="0 0 73 62" fill="none" xmlns="http://www.w3.org/2000/svg">
<path fill-rule="evenodd" clip-rule="evenodd" d="M26.1372 0.5465C10.6132 10.6395 1.98893 22.387 0.264371 35.7888C-2.42037 56.6523 16.0095 66.8644 25.3477 57.6889C34.6859 48.5134 29.0882 36.8671 22.3264 33.6837C15.5646 30.5 11.4295 31.6088 12.1508 27.3546C12.8721 23.1005 22.4921 11.3055 30.9437 5.81237C31.5044 5.32966 31.7178 4.39303 31.1779 3.68242C30.8227 3.21515 30.1261 2.29867 29.0882 0.932898C28.1805 -0.261404 27.311 -0.2167 26.1372 0.5465Z" fill="white"/>
<path fill-rule="evenodd" clip-rule="evenodd" d="M67.4846 0.5465C51.4904 10.6395 42.6048 22.387 40.8279 35.7888C38.0619 56.6523 57.0502 66.8644 66.6714 57.6889C76.2926 48.5134 70.5252 36.8671 63.5586 33.6837C56.5919 30.5 52.3313 31.6088 53.0747 27.3546C53.8178 23.1005 63.7293 11.3055 72.437 5.81237C73.0147 5.32966 73.2345 4.39303 72.6781 3.68242C72.3123 3.21515 71.5946 2.29867 70.5252 0.932898C69.5901 -0.261404 68.6942 -0.2167 67.4846 0.5465Z" fill="white"/>
</svg>
