<svg width="27" height="26" viewBox="0 0 27 26" fill="none" xmlns="http://www.w3.org/2000/svg">
<path d="M22.5 0C23.6935 0 24.8381 0.456546 25.682 1.2692C26.5259 2.08186 27 3.18406 27 4.33333V21.6667C27 22.8159 26.5259 23.9181 25.682 24.7308C24.8381 25.5435 23.6935 26 22.5 26H4.5C3.30653 26 2.16193 25.5435 1.31802 24.7308C0.474106 23.9181 0 22.8159 0 21.6667V4.33333C0 3.18406 0.474106 2.08186 1.31802 1.2692C2.16193 0.456546 3.30653 0 4.5 0H22.5ZM22.5 2.88889H4.5C4.10218 2.88889 3.72064 3.04107 3.43934 3.31196C3.15804 3.58284 3 3.95024 3 4.33333V21.6667C3 22.0498 3.15804 22.4172 3.43934 22.688C3.72064 22.9589 4.10218 23.1111 4.5 23.1111H22.5C22.8978 23.1111 23.2794 22.9589 23.5607 22.688C23.842 22.4172 24 22.0498 24 21.6667V4.33333C24 3.95024 23.842 3.58284 23.5607 3.31196C23.2794 3.04107 22.8978 2.88889 22.5 2.88889ZM7.5 10.1111C7.8674 10.1112 8.22201 10.241 8.49656 10.4761C8.77111 10.7112 8.94651 11.0352 8.9895 11.3866L9 11.5556V18.7778C8.99958 19.1459 8.85318 19.5 8.59073 19.7678C8.32827 20.0355 7.96957 20.1966 7.58791 20.2181C7.20625 20.2397 6.83043 20.1201 6.53725 19.8838C6.24407 19.6475 6.05566 19.3124 6.0105 18.9468L6 18.7778V11.5556C6 11.1725 6.15804 10.8051 6.43934 10.5342C6.72064 10.2633 7.10218 10.1111 7.5 10.1111ZM12 8.66667C12.3513 8.66662 12.6915 8.78529 12.9612 9.00201C13.2309 9.21873 13.4131 9.51974 13.476 9.85256C13.7778 9.684 14.0899 9.53303 14.4105 9.40044C15.411 8.98878 16.9095 8.762 18.2625 9.17078C18.972 9.38744 19.6845 9.79189 20.2125 10.4809C20.685 11.0948 20.94 11.8416 20.991 12.6808L21 13V18.7778C20.9996 19.1459 20.8532 19.5 20.5907 19.7678C20.3283 20.0355 19.9696 20.1966 19.5879 20.2181C19.2062 20.2397 18.8304 20.1201 18.5373 19.8838C18.2441 19.6475 18.0557 19.3124 18.0105 18.9468L18 18.7778V13C18 12.5233 17.88 12.3009 17.802 12.1983C17.69 12.0642 17.5358 11.9689 17.3625 11.9268C16.8405 11.7679 16.089 11.8517 15.5895 12.0568C14.8395 12.3659 14.1525 12.8512 13.6845 13.3004L13.5 13.4911V18.7778C13.4996 19.1459 13.3532 19.5 13.0907 19.7678C12.8283 20.0355 12.4696 20.1966 12.0879 20.2181C11.7062 20.2397 11.3304 20.1201 11.0373 19.8838C10.7441 19.6475 10.5557 19.3124 10.5105 18.9468L10.5 18.7778V10.1111C10.5 9.72802 10.658 9.36062 10.9393 9.08973C11.2206 8.81885 11.6022 8.66667 12 8.66667ZM7.5 5.77778C7.89782 5.77778 8.27936 5.92996 8.56066 6.20085C8.84196 6.47173 9 6.83913 9 7.22222C9 7.60531 8.84196 7.97271 8.56066 8.2436C8.27936 8.51448 7.89782 8.66667 7.5 8.66667C7.10218 8.66667 6.72064 8.51448 6.43934 8.2436C6.15804 7.97271 6 7.60531 6 7.22222C6 6.83913 6.15804 6.47173 6.43934 6.20085C6.72064 5.92996 7.10218 5.77778 7.5 5.77778Z" fill="white"/>
</svg>
