<svg width="74" height="74" viewBox="0 0 74 74" fill="none" xmlns="http://www.w3.org/2000/svg">
<path fill-rule="evenodd" clip-rule="evenodd" d="M49.9215 35.589C49.9215 38.86 48.6221 41.997 46.3092 44.31C43.9963 46.6229 40.8592 47.9223 37.5882 47.9223C34.3172 47.9223 31.1802 46.6229 28.8672 44.31C26.5543 41.997 25.2549 38.86 25.2549 35.589C25.2549 32.318 26.5543 29.1809 28.8672 26.868C31.1802 24.555 34.3172 23.2556 37.5882 23.2556C40.8592 23.2556 43.9963 24.555 46.3092 26.868C48.6221 29.1809 49.9215 32.318 49.9215 35.589ZM43.7549 35.589C43.7549 37.2245 43.1052 38.793 41.9487 39.9495C40.7922 41.1059 39.2237 41.7556 37.5882 41.7556C35.9527 41.7556 34.3842 41.1059 33.2277 39.9495C32.0712 38.793 31.4215 37.2245 31.4215 35.589C31.4215 33.9535 32.0712 32.385 33.2277 31.2285C34.3842 30.072 35.9527 29.4223 37.5882 29.4223C39.2237 29.4223 40.7922 30.072 41.9487 31.2285C43.1052 32.385 43.7549 33.9535 43.7549 35.589Z" fill="white"/>
<path fill-rule="evenodd" clip-rule="evenodd" d="M17.6148 54.8475C13.6399 51.0629 10.8765 46.1846 9.67414 40.8295C8.47173 35.4743 8.88431 29.8829 10.8597 24.7623C12.8351 19.6417 16.2846 15.2218 20.7719 12.0616C25.2593 8.90143 30.583 7.14288 36.0698 7.00834C41.5566 6.8738 46.96 8.36931 51.5969 11.3058C56.2337 14.2422 59.8957 18.4877 62.1197 23.5054C64.3437 28.523 65.0298 34.0875 64.0913 39.4951C63.1528 44.9027 60.6318 49.9106 56.8472 53.8855L37.712 73.9826L17.6148 54.8475ZM52.3825 49.6336L37.4993 65.2661L21.8668 50.3828C18.7753 47.4392 16.6261 43.6451 15.691 39.4801C14.7559 35.3151 15.0768 30.9663 16.6131 26.9837C18.1495 23.001 20.8323 19.5634 24.3223 17.1055C27.8124 14.6476 31.9529 13.2798 36.2203 13.175C40.4877 13.0702 44.6903 14.2332 48.2968 16.5169C51.9032 18.8005 54.7515 22.1024 56.4815 26.0048C58.2115 29.9072 58.7454 34.235 58.0158 38.4409C57.2862 42.6467 55.3258 46.5418 52.3825 49.6336Z" fill="white"/>
</svg>
