<svg width="27" height="25" viewBox="0 0 27 25" fill="none" xmlns="http://www.w3.org/2000/svg">
<path d="M2.7 25C1.9575 25 1.32165 24.6937 0.792452 24.0812C0.263252 23.4687 -0.000897708 22.7333 2.29202e-06 21.875V3.125C2.29202e-06 2.26563 0.264602 1.52969 0.793802 0.91719C1.323 0.30469 1.9584 -0.00103901 2.7 2.6528e-06H24.3C25.0425 2.6528e-06 25.6783 0.306252 26.2075 0.918752C26.7367 1.53125 27.0009 2.26667 27 3.125V21.875C27 22.7344 26.7354 23.4703 26.2062 24.0828C25.677 24.6953 25.0416 25.001 24.3 25H2.7ZM13.5 14.0625L2.7 6.25V21.875H24.3V6.25L13.5 14.0625ZM13.5 10.9375L24.3 3.125H2.7L13.5 10.9375ZM2.7 6.25V3.125V21.875V6.25Z" fill="white"/>
</svg>
