<svg width="30" height="27" viewBox="0 0 30 27" fill="none" xmlns="http://www.w3.org/2000/svg">
<path d="M1.07494 3.4453H27.7765C28.0823 3.4453 28.3426 3.28834 28.5576 2.97443C28.7725 2.66049 28.88 2.27523 28.88 1.81862C28.88 1.37627 28.7725 0.998138 28.5576 0.684217C28.3426 0.370294 28.0823 0.213333 27.7765 0.213333H1.07494C0.778735 0.213333 0.525527 0.370294 0.315316 0.684217C0.105105 0.998138 0 1.37627 0 1.81862C0 2.27523 0.105105 2.66049 0.315316 2.97443C0.525527 3.28834 0.778735 3.4453 1.07494 3.4453ZM1.07494 14.6609H27.7765C28.0823 14.6609 28.3426 14.5039 28.5576 14.19C28.7725 13.876 28.88 13.4908 28.88 13.0341C28.88 12.5776 28.7725 12.1959 28.5576 11.8891C28.3426 11.5823 28.0823 11.4289 27.7765 11.4289H1.07494C0.778735 11.4289 0.525527 11.5823 0.315316 11.8891C0.105105 12.1959 0 12.5776 0 13.0341C0 13.4908 0.105105 13.876 0.315316 14.19C0.525527 14.5039 0.778735 14.6609 1.07494 14.6609ZM1.07494 25.8764H20.4989C20.8046 25.8764 21.065 25.7195 21.28 25.4054C21.495 25.0916 21.6024 24.7063 21.6024 24.2498C21.6024 23.7931 21.495 23.4115 21.28 23.1045C21.065 22.7978 20.8046 22.6445 20.4989 22.6445H1.07494C0.778735 22.6445 0.525527 22.7978 0.315316 23.1045C0.105105 23.4115 0 23.7931 0 24.2498C0 24.7063 0.105105 25.0916 0.315316 25.4054C0.525527 25.7195 0.778735 25.8764 1.07494 25.8764Z" fill="white"/>
</svg>
