<svg width="27" height="26" viewBox="0 0 27 26" fill="none" xmlns="http://www.w3.org/2000/svg">
<path d="M26.0608 1.00024L26.9607 0.934241C26.9491 0.737922 26.8855 0.549795 26.7781 0.393412C26.6706 0.237028 26.524 0.119338 26.3567 0.0550756C26.1893 -0.00918711 26.0086 -0.0171668 25.8372 0.0321355C25.6658 0.0814378 25.5113 0.185831 25.393 0.332246L26.0608 1.00024ZM25.1644 6.91818C25.1644 6.65297 25.0696 6.39862 24.9008 6.21108C24.732 6.02355 24.5031 5.91819 24.2644 5.91819C24.0257 5.91819 23.7968 6.02355 23.628 6.21108C23.4593 6.39862 23.3644 6.65297 23.3644 6.91818H25.1644ZM0.901078 23V22C0.707834 21.9998 0.519645 22.0686 0.364352 22.1964C0.209059 22.3242 0.0949084 22.5041 0.0387878 22.7096C-0.0173329 22.9151 -0.0124431 23.1352 0.0527336 23.3373C0.11791 23.5394 0.239912 23.7129 0.400692 23.832L0.901078 23ZM2.69743 1.00024L3.5416 0.650243C3.48026 0.467661 3.37223 0.308975 3.23081 0.193696C3.08938 0.0784173 2.92072 0.0115691 2.74556 0.00137047C2.5704 -0.00882819 2.39638 0.0380671 2.24489 0.136291C2.09339 0.234515 1.97103 0.379786 1.89285 0.554244L2.69743 1.00024ZM9.88642 19.0001L10.5236 19.7061C10.6317 19.5856 10.7104 19.4364 10.7521 19.2727C10.7938 19.109 10.7973 18.9362 10.7622 18.7706C10.727 18.605 10.6544 18.4521 10.5513 18.3264C10.4481 18.2006 10.3178 18.1062 10.1726 18.0521L9.88642 19.0001ZM22.8893 2.94622L22.2233 3.61821L22.5473 4.01621L23.0243 3.93621L22.8893 2.94622ZM25.1644 1.06624C25.2562 2.62222 25.1698 3.56621 24.943 4.27821C24.7234 4.9682 24.3382 5.5362 23.6416 6.27819L24.8872 7.72217C25.6756 6.88218 26.284 6.05819 26.6404 4.9462C26.9877 3.85421 27.0597 2.59022 26.9607 0.934241L25.1644 1.06624ZM25.1644 8.37417V6.91818H23.3644V8.37617H25.1644V8.37417ZM12.5827 7.08218V9.00016H14.3827V7.08218H12.5827ZM12.5827 9.00016V10.0002H14.3827V9.00016H12.5827ZM18.9456 0.000249677C18.109 0.000774811 17.2808 0.184371 16.5081 0.540555C15.7355 0.89674 15.0335 1.41854 14.4423 2.07616C13.8512 2.73377 13.3823 3.51433 13.0627 4.37327C12.743 5.2322 12.5787 6.15269 12.5791 7.08218H14.3791C14.3786 6.41517 14.4964 5.75458 14.7258 5.13817C14.9551 4.52175 15.2915 3.96158 15.7157 3.48965C16.14 3.01772 16.6437 2.64328 17.1982 2.38772C17.7527 2.13216 18.3471 2.00049 18.9474 2.00023V0.000249677H18.9456ZM23.3626 8.37417C23.3644 17.0061 17.0772 24 9.32484 24V26C18.0726 26 25.1644 18.1081 25.1644 8.37417H23.3626ZM1.85505 1.35024C2.83422 4.25421 6.50612 10.0002 13.4827 10.0002V8.00017C7.51409 8.00017 4.35878 3.08022 3.5398 0.650243L1.85505 1.35024ZM1.89285 0.554244C0.0083026 4.7462 -0.281489 8.81416 1.08827 12.2781C2.45443 15.7321 5.39375 18.3881 9.60203 19.9481L10.1726 18.0521C6.29372 16.6121 3.84039 14.2681 2.73523 11.4721C1.63366 8.68616 1.79385 5.2522 3.5038 1.44624L1.89285 0.554244ZM9.24924 18.2941C8.16567 19.5001 4.90776 22 0.901078 22V24C5.51975 24 9.21144 21.168 10.5236 19.7061L9.24924 18.2941ZM23.557 2.27623C22.9751 1.55914 22.264 0.985966 21.4699 0.593878C20.6758 0.201789 19.8164 -0.000458799 18.9474 0.000249677V2.00023C20.2451 2.00023 21.4133 2.62222 22.2233 3.61821L23.557 2.27623ZM23.0243 3.93621C24.458 3.67594 25.7674 2.87506 26.7321 1.66823L25.393 0.332246C24.7067 1.19372 23.7753 1.76763 22.7543 1.95823L23.0243 3.93621ZM0.400692 23.832C3.35441 26.02 6.45032 26 9.32484 26V24C6.39092 24 3.83859 23.978 1.40146 22.168L0.400692 23.832Z" fill="white"/>
</svg>
